<mxfile host="app.diagrams.net" agent="Mozilla/5.0 (Macintosh; Intel Mac OS X 10_15_7) AppleWebKit/537.36 (KHTML, like Gecko) Chrome/134.0.0.0 Safari/537.36" version="27.1.1">
  <diagram name="Page-1" id="QYdqtcRAc26NnAnZ6ose">
    <mxGraphModel dx="1035" dy="719" grid="1" gridSize="10" guides="1" tooltips="1" connect="1" arrows="1" fold="1" page="1" pageScale="1" pageWidth="850" pageHeight="1100" math="0" shadow="0">
      <root>
        <mxCell id="0" />
        <mxCell id="1" parent="0" />
        <mxCell id="zIN-HubTdf4Wd-nVvZUt-37" style="edgeStyle=orthogonalEdgeStyle;rounded=0;orthogonalLoop=1;jettySize=auto;html=1;exitX=0.5;exitY=1;exitDx=0;exitDy=0;entryX=1;entryY=0.5;entryDx=0;entryDy=0;" edge="1" parent="1" source="zIN-HubTdf4Wd-nVvZUt-1" target="zIN-HubTdf4Wd-nVvZUt-36">
          <mxGeometry relative="1" as="geometry" />
        </mxCell>
        <mxCell id="zIN-HubTdf4Wd-nVvZUt-69" style="edgeStyle=orthogonalEdgeStyle;rounded=0;orthogonalLoop=1;jettySize=auto;html=1;exitX=0.25;exitY=1;exitDx=0;exitDy=0;entryX=1;entryY=0.5;entryDx=0;entryDy=0;" edge="1" parent="1" source="zIN-HubTdf4Wd-nVvZUt-1" target="zIN-HubTdf4Wd-nVvZUt-68">
          <mxGeometry relative="1" as="geometry" />
        </mxCell>
        <mxCell id="zIN-HubTdf4Wd-nVvZUt-1" value="game server&lt;br&gt;&amp;nbsp;control" style="rounded=0;whiteSpace=wrap;html=1;" vertex="1" parent="1">
          <mxGeometry x="460" y="320" width="120" height="60" as="geometry" />
        </mxCell>
        <mxCell id="zIN-HubTdf4Wd-nVvZUt-42" style="edgeStyle=orthogonalEdgeStyle;rounded=0;orthogonalLoop=1;jettySize=auto;html=1;exitX=0;exitY=0.5;exitDx=0;exitDy=0;entryX=1;entryY=0.5;entryDx=0;entryDy=0;" edge="1" parent="1" source="zIN-HubTdf4Wd-nVvZUt-10" target="zIN-HubTdf4Wd-nVvZUt-15">
          <mxGeometry relative="1" as="geometry">
            <mxPoint x="240.33333333333326" y="290" as="targetPoint" />
          </mxGeometry>
        </mxCell>
        <mxCell id="zIN-HubTdf4Wd-nVvZUt-45" style="edgeStyle=orthogonalEdgeStyle;rounded=0;orthogonalLoop=1;jettySize=auto;html=1;entryX=0.5;entryY=1;entryDx=0;entryDy=0;startArrow=classic;startFill=1;" edge="1" parent="1" source="zIN-HubTdf4Wd-nVvZUt-10" target="zIN-HubTdf4Wd-nVvZUt-43">
          <mxGeometry relative="1" as="geometry" />
        </mxCell>
        <mxCell id="zIN-HubTdf4Wd-nVvZUt-54" style="edgeStyle=orthogonalEdgeStyle;rounded=0;orthogonalLoop=1;jettySize=auto;html=1;exitX=1;exitY=0.5;exitDx=0;exitDy=0;entryX=0;entryY=0.5;entryDx=0;entryDy=0;" edge="1" parent="1" source="zIN-HubTdf4Wd-nVvZUt-10" target="zIN-HubTdf4Wd-nVvZUt-66">
          <mxGeometry relative="1" as="geometry">
            <mxPoint x="320" y="430" as="targetPoint" />
          </mxGeometry>
        </mxCell>
        <mxCell id="zIN-HubTdf4Wd-nVvZUt-77" style="edgeStyle=orthogonalEdgeStyle;rounded=0;orthogonalLoop=1;jettySize=auto;html=1;exitX=0;exitY=0.25;exitDx=0;exitDy=0;entryX=1;entryY=0.5;entryDx=0;entryDy=0;" edge="1" parent="1" source="zIN-HubTdf4Wd-nVvZUt-10" target="zIN-HubTdf4Wd-nVvZUt-76">
          <mxGeometry relative="1" as="geometry" />
        </mxCell>
        <mxCell id="zIN-HubTdf4Wd-nVvZUt-10" value="playerView&lt;br&gt;controller" style="rounded=0;whiteSpace=wrap;html=1;" vertex="1" parent="1">
          <mxGeometry x="180" y="320" width="120" height="60" as="geometry" />
        </mxCell>
        <mxCell id="zIN-HubTdf4Wd-nVvZUt-49" style="edgeStyle=orthogonalEdgeStyle;rounded=0;orthogonalLoop=1;jettySize=auto;html=1;entryX=0.25;entryY=0;entryDx=0;entryDy=0;" edge="1" parent="1" source="zIN-HubTdf4Wd-nVvZUt-13" target="zIN-HubTdf4Wd-nVvZUt-1">
          <mxGeometry relative="1" as="geometry">
            <Array as="points">
              <mxPoint x="490" y="240" />
              <mxPoint x="490" y="240" />
            </Array>
          </mxGeometry>
        </mxCell>
        <mxCell id="zIN-HubTdf4Wd-nVvZUt-73" value="Map data" style="edgeLabel;html=1;align=center;verticalAlign=middle;resizable=0;points=[];" vertex="1" connectable="0" parent="zIN-HubTdf4Wd-nVvZUt-49">
          <mxGeometry x="-0.1992" y="-2" relative="1" as="geometry">
            <mxPoint x="-18" y="-4" as="offset" />
          </mxGeometry>
        </mxCell>
        <mxCell id="zIN-HubTdf4Wd-nVvZUt-13" value="Map&amp;nbsp;&lt;br&gt;controller" style="rounded=0;whiteSpace=wrap;html=1;" vertex="1" parent="1">
          <mxGeometry x="392.5" y="150" width="120" height="60" as="geometry" />
        </mxCell>
        <mxCell id="zIN-HubTdf4Wd-nVvZUt-15" value="music controller" style="rounded=0;whiteSpace=wrap;html=1;" vertex="1" parent="1">
          <mxGeometry x="20" y="320" width="120" height="60" as="geometry" />
        </mxCell>
        <mxCell id="zIN-HubTdf4Wd-nVvZUt-48" style="edgeStyle=orthogonalEdgeStyle;rounded=0;orthogonalLoop=1;jettySize=auto;html=1;entryX=0.25;entryY=1;entryDx=0;entryDy=0;" edge="1" parent="1" source="zIN-HubTdf4Wd-nVvZUt-36" target="zIN-HubTdf4Wd-nVvZUt-10">
          <mxGeometry relative="1" as="geometry" />
        </mxCell>
        <mxCell id="zIN-HubTdf4Wd-nVvZUt-36" value="LeaderBoard" style="rounded=0;whiteSpace=wrap;html=1;" vertex="1" parent="1">
          <mxGeometry x="315" y="500" width="120" height="60" as="geometry" />
        </mxCell>
        <mxCell id="zIN-HubTdf4Wd-nVvZUt-53" style="edgeStyle=orthogonalEdgeStyle;rounded=0;orthogonalLoop=1;jettySize=auto;html=1;entryX=1;entryY=0.5;entryDx=0;entryDy=0;startArrow=classic;startFill=1;" edge="1" parent="1" source="zIN-HubTdf4Wd-nVvZUt-38" target="zIN-HubTdf4Wd-nVvZUt-1">
          <mxGeometry relative="1" as="geometry" />
        </mxCell>
        <mxCell id="zIN-HubTdf4Wd-nVvZUt-38" value="Player&lt;div&gt;&lt;br&gt;&lt;/div&gt;" style="swimlane;fontStyle=0;childLayout=stackLayout;horizontal=1;startSize=30;horizontalStack=0;resizeParent=1;resizeParentMax=0;resizeLast=0;collapsible=1;marginBottom=0;whiteSpace=wrap;html=1;" vertex="1" parent="1">
          <mxGeometry x="680" y="290" width="140" height="120" as="geometry" />
        </mxCell>
        <mxCell id="zIN-HubTdf4Wd-nVvZUt-39" value="VectorMoving&lt;span style=&quot;white-space: pre;&quot;&gt;&#x9;&lt;/span&gt;" style="text;strokeColor=none;fillColor=none;align=left;verticalAlign=middle;spacingLeft=4;spacingRight=4;overflow=hidden;points=[[0,0.5],[1,0.5]];portConstraint=eastwest;rotatable=0;whiteSpace=wrap;html=1;" vertex="1" parent="zIN-HubTdf4Wd-nVvZUt-38">
          <mxGeometry y="30" width="140" height="30" as="geometry" />
        </mxCell>
        <mxCell id="zIN-HubTdf4Wd-nVvZUt-40" value="Position" style="text;strokeColor=none;fillColor=none;align=left;verticalAlign=middle;spacingLeft=4;spacingRight=4;overflow=hidden;points=[[0,0.5],[1,0.5]];portConstraint=eastwest;rotatable=0;whiteSpace=wrap;html=1;" vertex="1" parent="zIN-HubTdf4Wd-nVvZUt-38">
          <mxGeometry y="60" width="140" height="30" as="geometry" />
        </mxCell>
        <mxCell id="zIN-HubTdf4Wd-nVvZUt-41" value="listPosition Body" style="text;strokeColor=none;fillColor=none;align=left;verticalAlign=middle;spacingLeft=4;spacingRight=4;overflow=hidden;points=[[0,0.5],[1,0.5]];portConstraint=eastwest;rotatable=0;whiteSpace=wrap;html=1;" vertex="1" parent="zIN-HubTdf4Wd-nVvZUt-38">
          <mxGeometry y="90" width="140" height="30" as="geometry" />
        </mxCell>
        <mxCell id="zIN-HubTdf4Wd-nVvZUt-44" style="edgeStyle=orthogonalEdgeStyle;rounded=0;orthogonalLoop=1;jettySize=auto;html=1;exitX=0.75;exitY=1;exitDx=0;exitDy=0;entryX=0.002;entryY=0.147;entryDx=0;entryDy=0;entryPerimeter=0;" edge="1" parent="1" source="zIN-HubTdf4Wd-nVvZUt-43" target="zIN-HubTdf4Wd-nVvZUt-1">
          <mxGeometry relative="1" as="geometry">
            <Array as="points">
              <mxPoint x="270" y="300" />
              <mxPoint x="440" y="300" />
              <mxPoint x="440" y="329" />
            </Array>
          </mxGeometry>
        </mxCell>
        <mxCell id="zIN-HubTdf4Wd-nVvZUt-72" value="init Player" style="edgeLabel;html=1;align=center;verticalAlign=middle;resizable=0;points=[];" vertex="1" connectable="0" parent="zIN-HubTdf4Wd-nVvZUt-44">
          <mxGeometry x="-0.0359" y="1" relative="1" as="geometry">
            <mxPoint x="16" y="-9" as="offset" />
          </mxGeometry>
        </mxCell>
        <mxCell id="zIN-HubTdf4Wd-nVvZUt-51" style="edgeStyle=orthogonalEdgeStyle;rounded=0;orthogonalLoop=1;jettySize=auto;html=1;entryX=0;entryY=0.5;entryDx=0;entryDy=0;" edge="1" parent="1" source="zIN-HubTdf4Wd-nVvZUt-43" target="zIN-HubTdf4Wd-nVvZUt-13">
          <mxGeometry relative="1" as="geometry" />
        </mxCell>
        <mxCell id="zIN-HubTdf4Wd-nVvZUt-71" value="Choose map" style="edgeLabel;html=1;align=center;verticalAlign=middle;resizable=0;points=[];" vertex="1" connectable="0" parent="zIN-HubTdf4Wd-nVvZUt-51">
          <mxGeometry x="-0.0552" y="1" relative="1" as="geometry">
            <mxPoint x="2" y="11" as="offset" />
          </mxGeometry>
        </mxCell>
        <mxCell id="zIN-HubTdf4Wd-nVvZUt-43" value="Room controller" style="rounded=0;whiteSpace=wrap;html=1;" vertex="1" parent="1">
          <mxGeometry x="180" y="150" width="120" height="60" as="geometry" />
        </mxCell>
        <mxCell id="zIN-HubTdf4Wd-nVvZUt-50" style="edgeStyle=orthogonalEdgeStyle;rounded=0;orthogonalLoop=1;jettySize=auto;html=1;entryX=0.75;entryY=0;entryDx=0;entryDy=0;startArrow=classic;startFill=1;" edge="1" parent="1" target="zIN-HubTdf4Wd-nVvZUt-1">
          <mxGeometry relative="1" as="geometry">
            <mxPoint x="550" y="210" as="sourcePoint" />
            <Array as="points">
              <mxPoint x="550" y="210" />
            </Array>
          </mxGeometry>
        </mxCell>
        <mxCell id="zIN-HubTdf4Wd-nVvZUt-75" value="get random&lt;br&gt;food" style="edgeLabel;html=1;align=center;verticalAlign=middle;resizable=0;points=[];" vertex="1" connectable="0" parent="zIN-HubTdf4Wd-nVvZUt-50">
          <mxGeometry x="-0.241" y="3" relative="1" as="geometry">
            <mxPoint x="27" y="13" as="offset" />
          </mxGeometry>
        </mxCell>
        <mxCell id="zIN-HubTdf4Wd-nVvZUt-46" value="Food&lt;br&gt;controller" style="rounded=0;whiteSpace=wrap;html=1;" vertex="1" parent="1">
          <mxGeometry x="527.5" y="150" width="120" height="60" as="geometry" />
        </mxCell>
        <mxCell id="zIN-HubTdf4Wd-nVvZUt-67" style="edgeStyle=orthogonalEdgeStyle;rounded=0;orthogonalLoop=1;jettySize=auto;html=1;entryX=0;entryY=0.5;entryDx=0;entryDy=0;" edge="1" parent="1" source="zIN-HubTdf4Wd-nVvZUt-66" target="zIN-HubTdf4Wd-nVvZUt-1">
          <mxGeometry relative="1" as="geometry" />
        </mxCell>
        <mxCell id="zIN-HubTdf4Wd-nVvZUt-66" value="player&amp;nbsp;&lt;br&gt;input" style="ellipse;whiteSpace=wrap;html=1;" vertex="1" parent="1">
          <mxGeometry x="345" y="330" width="60" height="40" as="geometry" />
        </mxCell>
        <mxCell id="zIN-HubTdf4Wd-nVvZUt-70" style="edgeStyle=orthogonalEdgeStyle;rounded=0;orthogonalLoop=1;jettySize=auto;html=1;" edge="1" parent="1" source="zIN-HubTdf4Wd-nVvZUt-68" target="zIN-HubTdf4Wd-nVvZUt-10">
          <mxGeometry relative="1" as="geometry" />
        </mxCell>
        <mxCell id="zIN-HubTdf4Wd-nVvZUt-68" value="Json Data&lt;br&gt;gameStage" style="ellipse;whiteSpace=wrap;html=1;" vertex="1" parent="1">
          <mxGeometry x="315" y="400" width="120" height="80" as="geometry" />
        </mxCell>
        <mxCell id="zIN-HubTdf4Wd-nVvZUt-76" value="UI controller" style="rounded=0;whiteSpace=wrap;html=1;" vertex="1" parent="1">
          <mxGeometry x="20" y="230" width="120" height="60" as="geometry" />
        </mxCell>
      </root>
    </mxGraphModel>
  </diagram>
</mxfile>
